<svg xmlns="http://www.w3.org/2000/svg" xmlns:xlink="http://www.w3.org/1999/xlink" width="68" zoomAndPan="magnify" viewBox="0 0 50.879997 50.999998" height="68" preserveAspectRatio="xMidYMid meet" version="1.0"><defs><clipPath id="4f18c4fc30"><path d="M 7 3.691406 L 44 3.691406 L 44 18 L 7 18 Z M 7 3.691406 " clip-rule="nonzero"/></clipPath><clipPath id="415320c7c8"><path d="M 0.515625 19 L 50.648438 19 L 50.648438 47.089844 L 0.515625 47.089844 Z M 0.515625 19 " clip-rule="nonzero"/></clipPath></defs><g clip-path="url(#4f18c4fc30)"><path fill="#fdc886" d="M 8.933594 17.980469 L 8.933594 12.179688 C 8.933594 9.054688 11.476562 6.511719 14.601562 6.511719 L 17.605469 6.511719 C 17.871094 7.375 18.667969 8.003906 19.617188 8.003906 L 31.253906 8.003906 C 32.203125 8.003906 33 7.375 33.269531 6.511719 L 36.269531 6.511719 C 39.398438 6.511719 41.9375 9.054688 41.9375 12.179688 L 41.9375 17.980469 L 43.828125 17.980469 L 43.828125 12.179688 C 43.828125 8.015625 40.4375 4.625 36.269531 4.625 L 32.949219 4.625 C 32.5625 4.109375 31.949219 3.769531 31.253906 3.769531 L 19.617188 3.769531 C 18.921875 3.769531 18.308594 4.109375 17.921875 4.625 L 14.601562 4.625 C 10.4375 4.625 7.046875 8.015625 7.046875 12.183594 L 7.046875 17.980469 Z M 8.933594 17.980469 " fill-opacity="1" fill-rule="nonzero"/></g><g clip-path="url(#415320c7c8)"><path fill="#fdc886" d="M 47.988281 19.171875 L 2.882812 19.171875 C 1.578125 19.171875 0.515625 20.230469 0.515625 21.539062 C 0.515625 22.847656 1.578125 23.90625 2.882812 23.90625 L 3.503906 23.90625 C 4.160156 27.621094 6.183594 38.890625 7.125 42.371094 C 8.246094 46.523438 9.550781 47.265625 12.652344 47.265625 L 37.300781 47.261719 L 38.21875 47.265625 C 41.320312 47.265625 42.625 46.523438 43.746094 42.371094 C 44.6875 38.890625 46.710938 27.617188 47.367188 23.90625 L 47.988281 23.90625 C 49.292969 23.90625 50.355469 22.847656 50.355469 21.539062 C 50.355469 20.230469 49.292969 19.171875 47.988281 19.171875 Z M 42.882812 20.402344 C 43.507812 20.402344 44.015625 20.910156 44.015625 21.539062 C 44.015625 22.164062 43.507812 22.671875 42.882812 22.671875 C 42.253906 22.671875 41.746094 22.164062 41.746094 21.539062 C 41.746094 20.910156 42.253906 20.402344 42.882812 20.402344 Z M 26.378906 23.902344 L 37.015625 23.902344 L 35.976562 29.234375 L 26.378906 29.234375 Z M 7.992188 20.402344 C 8.617188 20.402344 9.125 20.910156 9.125 21.539062 C 9.125 22.164062 8.617188 22.671875 7.992188 22.671875 C 7.363281 22.671875 6.855469 22.164062 6.855469 21.539062 C 6.855469 20.910156 7.363281 20.402344 7.992188 20.402344 Z M 6.382812 23.902344 L 11.929688 23.902344 L 12.96875 29.234375 L 7.347656 29.234375 C 6.957031 27.109375 6.613281 25.195312 6.382812 23.902344 Z M 8.855469 37.117188 C 8.484375 35.269531 8.078125 33.164062 7.699219 31.121094 L 13.335938 31.121094 L 14.507812 37.117188 Z M 13.570312 44.425781 L 12.652344 44.429688 C 10.769531 44.429688 10.617188 44.429688 9.859375 41.632812 C 9.691406 41.003906 9.480469 40.089844 9.25 39.003906 L 14.875 39.003906 L 15.9375 44.425781 Z M 24.492188 44.429688 L 17.863281 44.425781 L 16.800781 39.007812 L 24.492188 39.007812 Z M 24.492188 37.117188 L 16.433594 37.117188 L 15.261719 31.121094 L 24.492188 31.121094 Z M 24.492188 29.234375 L 14.894531 29.234375 L 13.851562 23.902344 L 24.492188 23.902344 Z M 33.007812 44.429688 L 26.378906 44.429688 L 26.378906 39.007812 L 34.070312 39.007812 Z M 26.378906 37.117188 L 26.378906 31.121094 L 35.609375 31.121094 L 34.4375 37.117188 Z M 41.007812 41.632812 C 40.257812 44.425781 40.101562 44.429688 38.230469 44.429688 C 38.226562 44.429688 38.222656 44.429688 38.21875 44.429688 L 34.933594 44.429688 L 35.992188 39.007812 L 41.621094 39.007812 C 41.390625 40.089844 41.179688 41.003906 41.007812 41.632812 Z M 42.015625 37.117188 L 36.363281 37.117188 L 37.535156 31.121094 L 43.175781 31.121094 C 42.792969 33.164062 42.386719 35.273438 42.015625 37.117188 Z M 43.523438 29.234375 L 37.902344 29.234375 L 38.945312 23.902344 L 44.488281 23.902344 C 44.257812 25.195312 43.914062 27.109375 43.523438 29.234375 Z M 43.523438 29.234375 " fill-opacity="1" fill-rule="nonzero"/></g></svg>