<svg xmlns="http://www.w3.org/2000/svg" xmlns:xlink="http://www.w3.org/1999/xlink" width="634" zoomAndPan="magnify" viewBox="0 0 475.5 713.249996" height="951" preserveAspectRatio="xMidYMid meet" version="1.0"><defs><g/></defs><g fill="#82c161" fill-opacity="1"><g transform="translate(402.834823, 626.658683)"><g><path d="M -94.171875 -33.40625 C -91.972656 -27.175781 -88.515625 -22.429688 -83.796875 -19.171875 C -79.078125 -15.921875 -73.375 -14.296875 -66.6875 -14.296875 C -63.75 -14.296875 -61.066406 -14.613281 -58.640625 -15.25 C -56.210938 -15.894531 -54.21875 -16.816406 -52.65625 -18.015625 C -52.65625 -12.148438 -53.867188 -7.816406 -56.296875 -5.015625 C -58.722656 -2.222656 -62.457031 -0.828125 -67.5 -0.828125 C -73.914062 -0.828125 -79.894531 -2.703125 -85.4375 -6.453125 C -90.988281 -10.210938 -95.410156 -15.300781 -98.703125 -21.71875 C -102.003906 -28.132812 -103.65625 -35.101562 -103.65625 -42.625 C -103.65625 -44.726562 -103.519531 -46.554688 -103.25 -48.109375 C -102.976562 -49.671875 -102.472656 -51.460938 -101.734375 -53.484375 L -28.1875 -69.984375 L -102.84375 -85.375 L -102.84375 -98.71875 L 0 -76.296875 L 0 -57.328125 L -68.1875 -41.375 L 0 -25.703125 L 0 -12.65625 Z M -94.171875 -33.40625 "/></g></g></g><g fill="#82c161" fill-opacity="1"><g transform="translate(402.834823, 534.817465)"><g><path d="M 0.828125 -13.609375 C 0.828125 -9.210938 -0.546875 -5.660156 -3.296875 -2.953125 C -6.046875 -0.253906 -10.171875 1.09375 -15.671875 1.09375 C -17.960938 1.09375 -20.941406 0.726562 -24.609375 0 L -68.734375 -9.34375 L -68.734375 -29.140625 L -22 -19.25 C -20.625 -18.96875 -19.335938 -18.828125 -18.140625 -18.828125 C -14.390625 -18.828125 -12.515625 -20.203125 -12.515625 -22.953125 C -12.515625 -25.523438 -13.585938 -27.726562 -15.734375 -29.5625 C -17.890625 -31.394531 -20.847656 -32.859375 -24.609375 -33.953125 L -68.734375 -43.3125 L -68.734375 -63.109375 L -22 -53.203125 C -20.625 -52.835938 -19.15625 -52.65625 -17.59375 -52.65625 C -15.757812 -52.65625 -14.453125 -53.085938 -13.671875 -53.953125 C -12.898438 -54.828125 -12.515625 -56.273438 -12.515625 -58.296875 C -12.515625 -60.859375 -13.613281 -63.078125 -15.8125 -64.953125 C -18.007812 -66.835938 -20.941406 -68.328125 -24.609375 -69.421875 L -24.609375 -75.203125 C -14.710938 -71.804688 -8 -67.609375 -4.46875 -62.609375 C -0.9375 -57.617188 0.828125 -52.601562 0.828125 -47.5625 C 0.828125 -43.625 -0.269531 -40.484375 -2.46875 -38.140625 C -4.675781 -35.804688 -7.929688 -34.410156 -12.234375 -33.953125 C -7.191406 -30.835938 -3.753906 -27.5625 -1.921875 -24.125 C -0.0859375 -20.6875 0.828125 -17.179688 0.828125 -13.609375 Z M 0.828125 -13.609375 "/></g></g></g><g fill="#82c161" fill-opacity="1"><g transform="translate(402.834823, 465.386598)"><g><path d="M 0.828125 -15.671875 C 0.828125 -11.273438 -0.0195312 -7.5625 -1.71875 -4.53125 C -3.414062 -1.507812 -5.613281 0.734375 -8.3125 2.203125 C -11.019531 3.671875 -13.835938 4.40625 -16.765625 4.40625 C -19.796875 4.40625 -22.429688 3.691406 -24.671875 2.265625 C -26.921875 0.847656 -28.550781 -0.867188 -29.5625 -2.890625 C -35.976562 -6.460938 -42.460938 -9.578125 -49.015625 -12.234375 C -55.566406 -14.890625 -62.644531 -17.410156 -70.25 -19.796875 L -73 -40.140625 C -61.269531 -40.597656 -48.578125 -41.378906 -34.921875 -42.484375 C -29.421875 -42.941406 -25.429688 -43.171875 -22.953125 -43.171875 C -20.847656 -43.171875 -19.109375 -42.988281 -17.734375 -42.625 C -20.210938 -46.925781 -22.503906 -50.222656 -24.609375 -52.515625 L -24.609375 -58.296875 C -17.828125 -52.429688 -12.097656 -45.421875 -7.421875 -37.265625 C -4.578125 -34.597656 -2.488281 -31.316406 -1.15625 -27.421875 C 0.164062 -23.523438 0.828125 -19.609375 0.828125 -15.671875 Z M -10.03125 -11.28125 C -10.03125 -14.664062 -11.035156 -17.503906 -13.046875 -19.796875 C -15.066406 -22.085938 -18.328125 -23.234375 -22.828125 -23.234375 C -25.578125 -23.234375 -29.425781 -22.957031 -34.375 -22.40625 C -44.820312 -21.488281 -51.832031 -20.894531 -55.40625 -20.625 C -48.164062 -18.425781 -39.503906 -14.710938 -29.421875 -9.484375 C -28.316406 -11.597656 -26.710938 -12.65625 -24.609375 -12.65625 C -22.867188 -12.65625 -21.3125 -12.082031 -19.9375 -10.9375 C -18.5625 -9.789062 -17.875 -8.34375 -17.875 -6.59375 C -17.875 -4.675781 -18.46875 -3.441406 -19.65625 -2.890625 C -16.351562 -2.890625 -13.921875 -3.550781 -12.359375 -4.875 C -10.804688 -6.207031 -10.03125 -8.34375 -10.03125 -11.28125 Z M -10.03125 -11.28125 "/></g></g></g><g fill="#82c161" fill-opacity="1"><g transform="translate(402.834823, 412.866621)"><g><path d="M 0.828125 -16.5 C 0.828125 -11.269531 -0.957031 -6.914062 -4.53125 -3.4375 C -8.113281 0.0390625 -13.707031 1.78125 -21.3125 1.78125 C -28.09375 1.78125 -35.21875 0.429688 -42.6875 -2.265625 C -50.15625 -4.972656 -56.476562 -9.003906 -61.65625 -14.359375 C -66.832031 -19.722656 -69.421875 -26.117188 -69.421875 -33.546875 C -69.421875 -37.304688 -68.78125 -40.101562 -67.5 -41.9375 C -66.21875 -43.769531 -64.523438 -44.6875 -62.421875 -44.6875 L -61.453125 -44.6875 L -68.734375 -46.1875 L -68.734375 -66 L -22 -56.09375 C -20.625 -55.726562 -19.15625 -55.546875 -17.59375 -55.546875 C -13.65625 -55.546875 -11.6875 -57.425781 -11.6875 -61.1875 C -11.6875 -63.75 -12.875 -65.96875 -15.25 -67.84375 C -17.632812 -69.726562 -20.753906 -71.21875 -24.609375 -72.3125 L -24.609375 -78.09375 C -14.710938 -74.695312 -8 -70.5 -4.46875 -65.5 C -0.9375 -60.507812 0.828125 -55.492188 0.828125 -50.453125 C 0.828125 -46.609375 -0.25 -43.515625 -2.40625 -41.171875 C -4.5625 -38.835938 -7.703125 -37.441406 -11.828125 -36.984375 C -8.066406 -34.328125 -5.015625 -31.367188 -2.671875 -28.109375 C -0.335938 -24.859375 0.828125 -20.988281 0.828125 -16.5 Z M -12.515625 -25.4375 C -12.515625 -27.726562 -13.585938 -29.992188 -15.734375 -32.234375 C -17.890625 -34.484375 -20.847656 -36.019531 -24.609375 -36.84375 L -55.6875 -43.4375 C -56.875 -43.4375 -58.039062 -42.976562 -59.1875 -42.0625 C -60.332031 -41.15625 -60.90625 -39.738281 -60.90625 -37.8125 C -60.90625 -34.144531 -58.773438 -30.84375 -54.515625 -27.90625 C -50.253906 -24.976562 -45.117188 -22.6875 -39.109375 -21.03125 C -33.109375 -19.382812 -27.816406 -18.5625 -23.234375 -18.5625 C -18.648438 -18.5625 -15.71875 -19.222656 -14.4375 -20.546875 C -13.15625 -21.878906 -12.515625 -23.507812 -12.515625 -25.4375 Z M -12.515625 -25.4375 "/></g></g></g><g fill="#82c161" fill-opacity="1"><g transform="translate(402.834823, 340.548543)"><g><path d="M 2.34375 -53.203125 C 2.34375 -49.535156 1.582031 -46.347656 0.0625 -43.640625 C -1.445312 -40.941406 -4.082031 -39.59375 -7.84375 -39.59375 C -10.21875 -39.59375 -12.875 -40.1875 -15.8125 -41.375 C -13.976562 -43.03125 -12.691406 -44.566406 -11.953125 -45.984375 C -11.222656 -47.410156 -10.859375 -48.945312 -10.859375 -50.59375 C -10.859375 -55.175781 -13.425781 -58.585938 -18.5625 -60.828125 C -23.695312 -63.078125 -29.378906 -64.203125 -35.609375 -64.203125 C -47.242188 -64.203125 -53.0625 -59.847656 -53.0625 -51.140625 C -53.0625 -48.671875 -52.925781 -46.5625 -52.65625 -44.8125 L 0 -33.546875 L 0 -13.75 L -87.4375 -32.453125 L -90.1875 -52.796875 L -59.671875 -46.328125 L -59.671875 -47.15625 C -59.671875 -50.632812 -60.789062 -53.882812 -63.03125 -56.90625 C -65.28125 -59.9375 -68.125 -62.367188 -71.5625 -64.203125 C -75 -66.035156 -78.457031 -66.953125 -81.9375 -66.953125 C -86.15625 -66.953125 -89.679688 -65.460938 -92.515625 -62.484375 C -95.359375 -59.503906 -96.78125 -54.945312 -96.78125 -48.8125 C -96.78125 -43.21875 -95.519531 -37.757812 -93 -32.4375 C -90.488281 -27.125 -86.710938 -22.796875 -81.671875 -19.453125 C -76.628906 -16.109375 -70.53125 -14.4375 -63.375 -14.4375 C -59.988281 -14.4375 -57.628906 -14.753906 -56.296875 -15.390625 C -54.972656 -16.035156 -54.21875 -16.359375 -54.03125 -16.359375 C -54.03125 -11.503906 -55.015625 -7.835938 -56.984375 -5.359375 C -58.953125 -2.890625 -62.1875 -1.65625 -66.6875 -1.65625 C -72.914062 -1.65625 -78.820312 -3.988281 -84.40625 -8.65625 C -90 -13.332031 -94.515625 -19.519531 -97.953125 -27.21875 C -101.390625 -34.914062 -103.109375 -43.03125 -103.109375 -51.5625 C -103.109375 -57.976562 -102.097656 -63.382812 -100.078125 -67.78125 C -98.066406 -72.175781 -95.410156 -75.453125 -92.109375 -77.609375 C -88.816406 -79.765625 -85.195312 -80.84375 -81.25 -80.84375 C -77.03125 -80.84375 -72.953125 -79.648438 -69.015625 -77.265625 C -65.078125 -74.878906 -61.867188 -71.488281 -59.390625 -67.09375 C -58.378906 -72.59375 -55.832031 -76.671875 -51.75 -79.328125 C -47.675781 -81.984375 -42.847656 -83.3125 -37.265625 -83.3125 C -32.035156 -83.3125 -26.347656 -82.328125 -20.203125 -80.359375 C -14.066406 -78.390625 -8.773438 -75.132812 -4.328125 -70.59375 C 0.117188 -66.0625 2.34375 -60.265625 2.34375 -53.203125 Z M 2.34375 -53.203125 "/></g></g></g><g fill="#82c161" fill-opacity="1"><g transform="translate(402.834823, 252.419486)"><g><path d="M -76.171875 -22.953125 C -76.171875 -19.929688 -77.222656 -17.363281 -79.328125 -15.25 C -81.429688 -13.144531 -84 -12.09375 -87.03125 -12.09375 C -90.050781 -12.09375 -92.640625 -13.144531 -94.796875 -15.25 C -96.953125 -17.363281 -98.03125 -19.929688 -98.03125 -22.953125 C -98.03125 -25.984375 -96.953125 -28.570312 -94.796875 -30.71875 C -92.640625 -32.875 -90.050781 -33.953125 -87.03125 -33.953125 C -84 -33.953125 -81.429688 -32.875 -79.328125 -30.71875 C -77.222656 -28.570312 -76.171875 -25.984375 -76.171875 -22.953125 Z M 0.828125 -13.609375 C 0.828125 -9.210938 -0.546875 -5.660156 -3.296875 -2.953125 C -6.046875 -0.253906 -10.171875 1.09375 -15.671875 1.09375 C -17.960938 1.09375 -20.941406 0.726562 -24.609375 0 L -68.734375 -9.34375 L -68.734375 -29.140625 L -22 -19.25 C -20.625 -18.882812 -19.15625 -18.703125 -17.59375 -18.703125 C -15.757812 -18.703125 -14.453125 -19.132812 -13.671875 -20 C -12.898438 -20.875 -12.515625 -22.316406 -12.515625 -24.328125 C -12.515625 -26.992188 -13.632812 -29.472656 -15.875 -31.765625 C -18.125 -34.054688 -21.035156 -35.703125 -24.609375 -36.703125 L -24.609375 -42.484375 C -14.710938 -39.085938 -8 -34.734375 -4.46875 -29.421875 C -0.9375 -24.109375 0.828125 -18.835938 0.828125 -13.609375 Z M 0.828125 -13.609375 "/></g></g></g><g fill="#82c161" fill-opacity="1"><g transform="translate(402.834823, 215.710502)"><g><path d="M 0.828125 -13.609375 C 0.828125 -9.210938 -0.546875 -5.660156 -3.296875 -2.953125 C -6.046875 -0.253906 -10.171875 1.09375 -15.671875 1.09375 C -17.960938 1.09375 -20.941406 0.726562 -24.609375 0 L -63.25 -8.25 L -63.25 -3.71875 L -68.734375 -4.8125 L -68.734375 -9.34375 L -87.71875 -13.46875 L -90.46875 -33.828125 L -68.734375 -29.140625 L -68.734375 -37.390625 L -63.25 -36.296875 L -63.25 -28.046875 L -22 -19.25 C -20.625 -18.882812 -19.15625 -18.703125 -17.59375 -18.703125 C -15.757812 -18.703125 -14.453125 -19.132812 -13.671875 -20 C -12.898438 -20.875 -12.515625 -22.316406 -12.515625 -24.328125 C -12.515625 -26.992188 -13.632812 -29.472656 -15.875 -31.765625 C -18.125 -34.054688 -21.035156 -35.703125 -24.609375 -36.703125 L -24.609375 -42.484375 C -14.710938 -39.085938 -8 -34.734375 -4.46875 -29.421875 C -0.9375 -24.109375 0.828125 -18.835938 0.828125 -13.609375 Z M 0.828125 -13.609375 "/></g></g></g><g fill="#82c161" fill-opacity="1"><g transform="translate(402.834823, 179.001518)"><g><path d="M 0.828125 -19.65625 C 0.828125 -12.875 -0.9375 -7.601562 -4.46875 -3.84375 C -8 -0.09375 -13.519531 1.78125 -21.03125 1.78125 C -27.351562 1.78125 -34.316406 0.546875 -41.921875 -1.921875 C -49.535156 -4.398438 -56.113281 -8.429688 -61.65625 -14.015625 C -67.207031 -19.609375 -69.984375 -26.710938 -69.984375 -35.328125 C -69.984375 -45.410156 -65.582031 -50.453125 -56.78125 -50.453125 C -51.644531 -50.453125 -46.921875 -48.984375 -42.609375 -46.046875 C -38.304688 -43.117188 -34.847656 -39.222656 -32.234375 -34.359375 C -29.628906 -29.503906 -28.140625 -24.328125 -27.765625 -18.828125 C -25.015625 -18.648438 -23.179688 -18.5625 -22.265625 -18.5625 C -17.773438 -18.5625 -14.726562 -19.335938 -13.125 -20.890625 C -11.519531 -22.453125 -10.71875 -24.972656 -10.71875 -28.453125 C -10.71875 -33.410156 -11.863281 -37.648438 -14.15625 -41.171875 C -16.445312 -44.703125 -19.929688 -48.578125 -24.609375 -52.796875 L -24.609375 -57.46875 C -7.648438 -47.289062 0.828125 -34.6875 0.828125 -19.65625 Z M -34.375 -19.9375 C -34.550781 -23.320312 -35.738281 -26.550781 -37.9375 -29.625 C -40.144531 -32.695312 -42.941406 -35.171875 -46.328125 -37.046875 C -49.722656 -38.929688 -53.300781 -39.875 -57.0625 -39.875 C -60.8125 -39.875 -62.6875 -38.726562 -62.6875 -36.4375 C -62.6875 -33.132812 -59.800781 -29.898438 -54.03125 -26.734375 C -48.257812 -23.578125 -41.707031 -21.3125 -34.375 -19.9375 Z M -34.375 -19.9375 "/></g></g></g><g fill="#82c161" fill-opacity="1"><g transform="translate(402.834823, 126.206548)"><g><path d="M 0.828125 -15.671875 C 0.828125 -11.273438 -0.0195312 -7.5625 -1.71875 -4.53125 C -3.414062 -1.507812 -5.613281 0.734375 -8.3125 2.203125 C -11.019531 3.671875 -13.835938 4.40625 -16.765625 4.40625 C -19.796875 4.40625 -22.429688 3.691406 -24.671875 2.265625 C -26.921875 0.847656 -28.550781 -0.867188 -29.5625 -2.890625 C -35.976562 -6.460938 -42.460938 -9.578125 -49.015625 -12.234375 C -55.566406 -14.890625 -62.644531 -17.410156 -70.25 -19.796875 L -73 -40.140625 C -61.269531 -40.597656 -48.578125 -41.378906 -34.921875 -42.484375 C -29.421875 -42.941406 -25.429688 -43.171875 -22.953125 -43.171875 C -20.847656 -43.171875 -19.109375 -42.988281 -17.734375 -42.625 C -20.210938 -46.925781 -22.503906 -50.222656 -24.609375 -52.515625 L -24.609375 -58.296875 C -17.828125 -52.429688 -12.097656 -45.421875 -7.421875 -37.265625 C -4.578125 -34.597656 -2.488281 -31.316406 -1.15625 -27.421875 C 0.164062 -23.523438 0.828125 -19.609375 0.828125 -15.671875 Z M -10.03125 -11.28125 C -10.03125 -14.664062 -11.035156 -17.503906 -13.046875 -19.796875 C -15.066406 -22.085938 -18.328125 -23.234375 -22.828125 -23.234375 C -25.578125 -23.234375 -29.425781 -22.957031 -34.375 -22.40625 C -44.820312 -21.488281 -51.832031 -20.894531 -55.40625 -20.625 C -48.164062 -18.425781 -39.503906 -14.710938 -29.421875 -9.484375 C -28.316406 -11.597656 -26.710938 -12.65625 -24.609375 -12.65625 C -22.867188 -12.65625 -21.3125 -12.082031 -19.9375 -10.9375 C -18.5625 -9.789062 -17.875 -8.34375 -17.875 -6.59375 C -17.875 -4.675781 -18.46875 -3.441406 -19.65625 -2.890625 C -16.351562 -2.890625 -13.921875 -3.550781 -12.359375 -4.875 C -10.804688 -6.207031 -10.03125 -8.34375 -10.03125 -11.28125 Z M -10.03125 -11.28125 "/></g></g></g><path stroke-linecap="butt" transform="matrix(0, -0.454023, 0.454023, 0, 249.201307, 632.734902)" fill="none" stroke-linejoin="miter" d="M 73.562352 117.547047 C 59.856741 122.433919 49.411912 130.065355 42.210658 140.467166 C 35.06963 150.817355 31.490512 163.361474 31.490512 178.099523 C 31.490512 184.603881 32.187408 190.549002 33.563992 195.917679 C 34.992197 201.243337 37.039866 205.605387 39.698393 209.003828 C 26.741299 209.003828 17.174042 206.3453 11.01383 201.019642 C 4.905239 195.642362 1.850944 187.417274 1.850944 176.327172 C 1.850944 162.182774 5.963488 149.019192 14.19718 136.84503 C 22.473889 124.619246 33.684443 114.88852 47.82884 107.644248 C 61.981842 100.348354 77.33075 96.700407 93.892773 96.700407 C 98.521536 96.700407 102.53944 97.001535 105.946484 97.586583 C 109.396547 98.180235 113.337018 99.290106 117.767897 100.916195 L 154.144122 262.89708 L 188.07691 98.472759 L 217.432558 98.472759 L 168.047617 324.998213 L 126.276905 324.998213 L 91.156813 174.769911 L 56.630373 324.998213 L 27.868377 324.998213 Z M 232.299662 326.847997 C 222.586143 326.847997 214.756823 323.819513 208.785891 317.753941 C 202.823563 311.688369 199.846701 302.602917 199.846701 290.471773 C 199.846701 285.447242 200.655444 278.891262 202.281533 270.812436 L 222.913082 173.591212 L 266.456145 173.591212 L 244.645897 276.576881 C 244.052245 279.579554 243.759721 282.392947 243.759721 284.999852 C 243.759721 293.285166 246.788206 297.42352 252.853778 297.42352 C 258.523582 297.42352 263.376039 295.057517 267.419754 290.325511 C 271.454865 285.593504 274.689837 279.089146 277.098858 270.812436 L 297.652974 173.591212 L 341.27347 173.591212 L 319.463222 276.576881 C 318.671686 279.579554 318.284522 282.805922 318.284522 286.264589 C 318.284522 290.2997 319.239527 293.181922 321.166744 294.911255 C 323.085358 296.588967 326.268708 297.42352 330.699587 297.42352 C 336.317769 297.42352 341.196037 295.005895 345.342996 290.179249 C 349.481351 285.352602 352.759341 278.891262 355.168362 270.812436 L 367.961987 270.812436 C 360.46821 292.596874 351.20208 307.377941 340.1636 315.164243 C 329.176741 322.950545 318.129657 326.847997 307.039554 326.847997 C 298.367077 326.847997 291.44114 324.430372 286.270347 319.603726 C 281.142573 314.725457 278.088278 307.524203 277.098858 298.017172 C 270.198732 309.150293 262.954461 316.747314 255.366043 320.782425 C 247.820643 324.82614 240.137585 326.847997 232.299662 326.847997 Z M 389.729217 326.847997 C 380.024302 326.847997 371.842232 324.972402 365.191612 321.229815 C 358.532389 317.487228 353.602498 312.626167 350.401941 306.663839 C 347.149762 300.70151 345.523673 294.489676 345.523673 288.03694 C 345.523673 281.377716 347.09814 275.587461 350.255679 270.657571 C 353.361596 265.684662 357.129994 262.088337 361.569476 259.868596 C 369.450418 245.767216 376.298922 231.502368 382.114988 217.065446 C 387.982677 202.619921 393.549237 187.021506 398.823273 170.2616 L 443.631073 164.204631 C 444.663511 190.02418 446.384241 217.99464 448.801866 248.116012 C 449.791285 260.186931 450.281693 268.962652 450.281693 274.434572 C 450.281693 279.063335 449.885925 282.909166 449.102993 285.963461 C 458.558403 280.491541 465.828486 275.441199 470.904638 270.812436 L 483.62083 270.812436 C 470.715358 285.739766 455.263206 298.361318 437.272977 308.659885 C 431.405289 314.923341 424.186828 319.526293 415.608991 322.485948 C 407.031154 325.393981 398.410298 326.847997 389.729217 326.847997 Z M 380.050113 302.895441 C 387.492269 302.895441 393.72131 300.675699 398.754444 296.244821 C 403.830597 291.805338 406.368673 284.629895 406.368673 274.727096 C 406.368673 268.661524 405.775021 260.186931 404.596321 249.294712 C 402.574464 226.279953 401.240898 210.827801 400.604228 202.938256 C 395.768978 218.906627 387.61272 237.980915 376.126849 260.16112 C 380.764216 262.630367 383.078597 266.17507 383.078597 270.812436 C 383.078597 274.649664 381.796653 278.099726 379.232766 281.162625 C 376.720501 284.165298 373.562962 285.670937 369.768753 285.670937 C 365.535758 285.670937 362.799798 284.337371 361.569476 281.678844 C 361.569476 288.974738 363.023493 294.343414 365.922922 297.793477 C 368.882577 301.191918 373.588773 302.895441 380.050113 302.895441 Z M 507.255052 326.847997 C 495.726163 326.847997 486.115888 322.907526 478.424227 315.017981 C 470.784187 307.137039 466.964167 294.808011 466.964167 278.056708 C 466.964167 263.120775 469.923822 247.419117 475.834528 230.960338 C 481.80546 214.501559 490.701633 200.572252 502.523045 189.189626 C 514.353062 177.806999 528.42863 172.111384 544.741147 172.111384 C 553.017857 172.111384 559.178069 173.513779 563.221783 176.327172 C 567.265498 179.131961 569.287355 182.857341 569.287355 187.486103 L 569.287355 189.637015 L 572.616967 173.591212 L 616.22886 173.591212 L 594.418612 276.576881 C 593.63568 279.579554 593.239912 282.805922 593.239912 286.264589 C 593.239912 294.937066 597.378267 299.273305 605.66358 299.273305 C 611.281762 299.273305 616.160031 296.657796 620.298386 291.435381 C 624.436741 286.161345 627.714731 279.28703 630.132356 270.812436 L 642.917377 270.812436 C 635.432203 292.596874 626.191885 307.377941 615.196422 315.164243 C 604.209564 322.950545 593.136668 326.847997 582.003548 326.847997 C 573.528954 326.847997 566.697657 324.481994 561.526865 319.749988 C 556.39909 314.966359 553.344795 308.049026 552.355376 298.972177 C 546.487688 307.25749 539.957519 313.985543 532.764869 319.156336 C 525.615237 324.28411 517.114833 326.847997 507.255052 326.847997 Z M 526.922992 297.42352 C 531.947522 297.42352 536.929035 295.057517 541.858925 290.325511 C 546.831834 285.593504 550.238878 279.089146 552.062852 270.812436 L 566.551395 202.353208 C 566.551395 199.737699 565.536165 197.173811 563.522911 194.661546 C 561.501054 192.097659 558.369326 190.815715 554.127727 190.815715 C 546.100524 190.815715 538.830441 195.521911 532.317479 204.934302 C 525.864743 214.303675 520.814401 225.608869 517.166455 238.867091 C 513.57013 252.082294 511.771967 263.740238 511.771967 273.840921 C 511.771967 283.941604 513.225984 290.402943 516.134017 293.207733 C 519.085068 296.021126 522.681393 297.42352 526.922992 297.42352 Z M 747.348459 330.177609 C 739.26103 330.177609 732.240453 328.499898 726.278125 325.144475 C 720.358815 321.797656 717.407763 316.007401 717.407763 307.773709 C 717.407763 302.499673 718.715518 296.631985 721.322423 290.179249 C 724.97037 294.222963 728.343 297.053564 731.448917 298.679653 C 734.606456 300.254121 737.979086 301.045656 741.584015 301.045656 C 751.684698 301.045656 759.204286 295.401663 764.125573 284.113677 C 769.107085 272.82569 771.59354 260.307382 771.59354 246.558752 C 771.59354 220.928484 762.009076 208.117652 742.840147 208.117652 C 737.368227 208.117652 732.70505 208.410176 728.867823 209.003828 L 704.020487 324.998213 L 660.477423 324.998213 L 701.654483 132.414151 L 746.462283 126.348579 L 732.188831 193.551675 L 734.038615 193.551675 C 741.730277 193.551675 748.897116 191.091032 755.556339 186.161142 C 762.20696 181.231251 767.558429 174.967795 771.59354 167.379378 C 775.637254 159.79096 777.659112 152.176731 777.659112 144.536692 C 777.659112 135.218941 774.381122 127.432639 767.825142 121.169183 C 761.269162 114.914331 751.220101 111.782603 737.660751 111.782603 C 725.340327 111.782603 713.312427 114.570185 701.585654 120.136745 C 689.9019 125.703306 680.369058 134.040241 672.96992 145.130343 C 665.631008 156.220446 661.95725 169.650741 661.95725 185.421228 C 661.95725 192.863384 662.645542 198.059987 664.03073 201.019642 C 665.458935 203.927675 666.173038 205.579576 666.173038 205.975343 C 655.478703 205.975343 647.391274 203.807224 641.919354 199.462382 C 636.499055 195.126143 633.788906 188.002322 633.788906 178.099523 C 633.788906 164.393912 638.942491 151.385196 649.241058 139.064771 C 659.539625 126.744347 673.167804 116.807133 690.125595 109.270337 C 707.083385 101.68192 724.944559 97.887711 743.726323 97.887711 C 757.870721 97.887711 769.769566 100.098848 779.431463 104.538331 C 789.144982 108.977813 796.363443 114.836898 801.095449 122.132792 C 805.827456 129.377063 808.193459 137.335438 808.193459 146.016519 C 808.193459 155.325666 805.552139 164.325082 800.278103 172.99756 C 795.055688 181.670037 787.613533 188.742236 777.951636 194.214156 C 790.08278 196.433898 799.047781 202.026269 804.863847 210.999874 C 810.731535 219.964875 813.66538 230.616192 813.66538 242.936616 C 813.66538 254.422487 811.49726 266.940795 807.161021 280.491541 C 802.816179 293.999268 795.64934 305.657212 785.643297 315.465371 C 775.688876 325.27353 762.921062 330.177609 747.348459 330.177609 Z M 874.845922 157.252884 C 868.186698 157.252884 862.525498 154.938502 857.836509 150.301136 C 853.207747 145.620751 850.893365 139.950947 850.893365 133.300327 C 850.893365 126.641103 853.207747 120.954092 857.836509 116.222085 C 862.525498 111.490079 868.186698 109.124075 874.845922 109.124075 C 881.496542 109.124075 887.192157 111.490079 891.924164 116.222085 C 896.699189 120.954092 899.091003 126.641103 899.091003 133.300327 C 899.091003 139.950947 896.699189 145.620751 891.924164 150.301136 C 887.192157 154.938502 881.496542 157.252884 874.845922 157.252884 Z M 854.291806 326.847997 C 844.578288 326.847997 836.740364 323.819513 830.778036 317.753941 C 824.815708 311.688369 821.838845 302.602917 821.838845 290.471773 C 821.838845 285.447242 822.647588 278.891262 824.273678 270.812436 L 844.905226 173.591212 L 888.44829 173.591212 L 866.638042 276.576881 C 865.846506 279.579554 865.450738 282.805922 865.450738 286.264589 C 865.450738 290.2997 866.414347 293.181922 868.33296 294.911255 C 870.260178 296.588967 873.434924 297.42352 877.874406 297.42352 C 883.742094 297.42352 889.188204 294.962877 894.212734 290.032987 C 899.288887 285.103096 902.936833 278.693378 905.156575 270.812436 L 917.872767 270.812436 C 910.378989 292.596874 900.768714 307.377941 889.041942 315.164243 C 877.358187 322.950545 865.777677 326.847997 854.291806 326.847997 Z M 935.140289 326.847997 C 925.435374 326.847997 917.59745 323.819513 911.635122 317.753941 C 905.672794 311.688369 902.687328 302.602917 902.687328 290.471773 C 902.687328 285.447242 903.504674 278.891262 905.130764 270.812436 L 923.310272 185.713752 L 913.330041 185.713752 L 915.696044 173.591212 L 925.753709 173.591212 L 934.770332 131.820499 L 979.646961 125.754927 L 969.296772 173.591212 L 987.484885 173.591212 L 985.050052 185.713752 L 966.930769 185.713752 L 947.486524 276.576881 C 946.703592 279.579554 946.307824 282.805922 946.307824 286.264589 C 946.307824 290.2997 947.271433 293.181922 949.190046 294.911255 C 951.10866 296.588967 954.29201 297.42352 958.722889 297.42352 C 964.590577 297.42352 970.036686 294.962877 975.06982 290.032987 C 980.145973 285.103096 983.785316 278.693378 986.005057 270.812436 L 998.721249 270.812436 C 991.236075 292.596874 981.617196 307.377941 969.890424 315.164243 C 958.20667 322.950545 946.626159 326.847997 935.140289 326.847997 Z M 1029.307219 326.847997 C 1014.371285 326.847997 1002.764964 322.950545 994.479651 315.164243 C 986.202941 307.377941 982.064586 295.203779 982.064586 278.641756 C 982.064586 264.746864 984.774735 249.415163 990.195034 232.66386 C 995.666954 215.903954 1004.563126 201.41541 1016.88355 189.189626 C 1029.203975 176.963842 1044.854011 170.855251 1063.825055 170.855251 C 1086.00526 170.855251 1097.095363 180.542959 1097.095363 199.909771 C 1097.095363 211.24938 1093.868995 221.668398 1087.416259 231.184033 C 1080.954919 240.648046 1072.377082 248.262274 1061.682747 254.026719 C 1050.988412 259.748145 1039.579975 263.017531 1027.457434 263.860689 C 1027.061666 269.874639 1026.863782 273.892543 1026.863782 275.905796 C 1026.863782 285.817199 1028.567305 292.545252 1031.965746 296.089955 C 1035.415809 299.643262 1040.982369 301.415613 1048.674031 301.415613 C 1059.566249 301.415613 1068.884 298.903348 1076.61868 293.878817 C 1084.404982 288.802665 1092.957008 281.111003 1102.274759 270.812436 L 1112.547515 270.812436 C 1090.126408 308.169477 1062.371039 326.847997 1029.307219 326.847997 Z M 1029.892267 249.294712 C 1037.334422 248.898944 1044.432432 246.292039 1051.186296 241.456789 C 1057.991782 236.57852 1063.463702 230.418308 1067.602057 222.976152 C 1071.740412 215.482375 1073.813891 207.601433 1073.813891 199.31612 C 1073.813891 191.03941 1071.267211 186.901055 1066.191058 186.901055 C 1058.946787 186.901055 1051.83157 193.259151 1044.8282 205.975343 C 1037.876452 218.691536 1032.903543 233.128457 1029.892267 249.294712 Z M 1136.792596 326.847997 C 1127.079077 326.847997 1118.897007 324.972402 1112.246387 321.229815 C 1105.587164 317.487228 1100.657273 312.626167 1097.456716 306.663839 C 1094.204537 300.70151 1092.578448 294.489676 1092.578448 288.03694 C 1092.578448 281.377716 1094.152915 275.587461 1097.310454 270.657571 C 1100.416371 265.684662 1104.184769 262.088337 1108.624251 259.868596 C 1116.505193 245.767216 1123.353697 231.502368 1129.169763 217.065446 C 1135.037452 202.619921 1140.604012 187.021506 1145.878048 170.2616 L 1190.685848 164.204631 C 1191.718286 190.02418 1193.447619 217.99464 1195.856641 248.116012 C 1196.84606 260.186931 1197.336468 268.962652 1197.336468 274.434572 C 1197.336468 279.063335 1196.9407 282.909166 1196.157768 285.963461 C 1205.621782 280.491541 1212.891864 275.441199 1217.968017 270.812436 L 1230.684209 270.812436 C 1217.770133 285.739766 1202.317981 298.361318 1184.327752 308.659885 C 1178.460064 314.923341 1171.241603 319.526293 1162.663766 322.485948 C 1154.085929 325.393981 1145.465073 326.847997 1136.792596 326.847997 Z M 1127.104888 302.895441 C 1134.547044 302.895441 1140.784689 300.675699 1145.809219 296.244821 C 1150.885372 291.805338 1153.423448 284.629895 1153.423448 274.727096 C 1153.423448 268.661524 1152.829796 260.186931 1151.651096 249.294712 C 1149.629239 226.279953 1148.295673 210.827801 1147.659003 202.938256 C 1142.823753 218.906627 1134.667495 237.980915 1123.181624 260.16112 C 1127.818991 262.630367 1130.133372 266.17507 1130.133372 270.812436 C 1130.133372 274.649664 1128.851428 278.099726 1126.287541 281.162625 C 1123.775276 284.165298 1120.626341 285.670937 1116.823528 285.670937 C 1112.590533 285.670937 1109.854573 284.337371 1108.624251 281.678844 C 1108.624251 288.974738 1110.078268 294.343414 1112.986301 297.793477 C 1115.937352 301.191918 1120.643548 302.895441 1127.104888 302.895441 Z M 1127.104888 302.895441 " stroke="#2d8300" stroke-width="11.3559" stroke-opacity="1" stroke-miterlimit="4"/></svg>