<svg xmlns="http://www.w3.org/2000/svg" xmlns:xlink="http://www.w3.org/1999/xlink" width="68" zoomAndPan="magnify" viewBox="0 0 50.879997 50.999998" height="68" preserveAspectRatio="xMidYMid meet" version="1.0"><defs><clipPath id="e6263a24d1"><path d="M 14 1.574219 L 37 1.574219 L 37 14 L 14 14 Z M 14 1.574219 " clip-rule="nonzero"/></clipPath><clipPath id="6df01a4cab"><path d="M 4 14 L 47 14 L 47 49.460938 L 4 49.460938 Z M 4 14 " clip-rule="nonzero"/></clipPath></defs><g clip-path="url(#e6263a24d1)"><path fill="#fdc886" d="M 20.785156 9.929688 C 20.582031 10 20.449219 10.066406 20.246094 10.066406 C 19.839844 10.066406 19.4375 9.863281 19.234375 9.457031 L 16.941406 5.214844 L 16 5.617188 C 14.515625 6.222656 13.773438 7.910156 14.382812 9.457031 L 14.449219 9.660156 L 18.15625 13.097656 C 22.941406 12.085938 27.929688 12.085938 32.644531 13.097656 L 36.351562 9.660156 L 36.421875 9.457031 C 37.027344 7.976562 36.285156 6.222656 34.804688 5.617188 L 33.65625 5.144531 L 31.433594 9.257812 C 31.230469 9.660156 30.828125 9.863281 30.421875 9.863281 C 30.21875 9.863281 30.085938 9.796875 29.882812 9.730469 C 29.34375 9.457031 29.140625 8.71875 29.410156 8.179688 L 32.105469 3.191406 C 31.566406 2.246094 30.558594 1.574219 29.34375 1.574219 L 21.457031 1.574219 C 20.179688 1.574219 19.097656 2.316406 18.558594 3.460938 L 21.257812 8.449219 C 21.527344 8.917969 21.324219 9.660156 20.785156 9.929688 Z M 20.785156 9.929688 " fill-opacity="1" fill-rule="nonzero"/></g><g clip-path="url(#6df01a4cab)"><path fill="#fdc886" d="M 32.914062 14.984375 C 28.0625 13.773438 22.875 13.773438 17.953125 14.917969 C 13.640625 18.421875 5.621094 26.847656 4.40625 36.820312 C 3.933594 40.394531 4.675781 43.359375 6.632812 45.515625 C 8.382812 47.472656 10.742188 48.480469 12.695312 48.953125 C 23.816406 48.886719 28.871094 46.054688 33.386719 42.957031 C 33.925781 42.617188 34.601562 42.886719 34.9375 43.425781 C 35.207031 43.964844 34.9375 44.503906 34.464844 44.976562 C 32.039062 47.335938 29.949219 48.617188 28.0625 49.425781 L 34.871094 49.425781 C 35.207031 49.425781 40.867188 49.359375 44.238281 45.582031 C 46.191406 43.425781 46.933594 40.460938 46.460938 36.890625 C 45.183594 26.914062 37.230469 18.488281 32.914062 14.984375 Z M 22.941406 29.339844 L 25.367188 29.8125 L 28.398438 30.417969 L 28.601562 30.488281 L 28.738281 30.554688 C 30.894531 31.632812 31.367188 32.914062 31.367188 33.789062 L 31.367188 33.925781 C 31.367188 36.082031 29.34375 37.832031 26.78125 37.832031 L 26.78125 39.789062 L 24.492188 39.789062 L 24.492188 37.832031 L 24.019531 37.832031 C 21.527344 37.832031 19.4375 36.082031 19.4375 33.925781 L 19.4375 33.046875 L 21.726562 33.046875 L 21.726562 33.925781 C 21.726562 34.800781 22.804688 35.542969 24.019531 35.542969 L 26.78125 35.542969 C 27.996094 35.542969 29.074219 34.800781 29.074219 33.925781 L 29.074219 33.789062 C 29.074219 33.585938 28.738281 33.183594 27.859375 32.644531 L 22.535156 31.566406 L 22.199219 31.496094 L 22.066406 31.429688 C 20.378906 30.554688 19.503906 29.476562 19.503906 28.261719 L 19.503906 28.128906 C 19.503906 25.972656 21.527344 24.21875 24.085938 24.21875 L 24.558594 24.21875 L 24.558594 22.398438 L 26.78125 22.398438 L 26.78125 24.21875 C 29.277344 24.21875 31.367188 25.972656 31.367188 28.128906 L 29.074219 28.128906 C 29.074219 27.25 27.996094 26.511719 26.78125 26.511719 L 24.019531 26.511719 C 22.804688 26.511719 21.726562 27.25 21.726562 28.128906 L 21.726562 28.261719 C 21.726562 28.464844 21.996094 28.871094 22.941406 29.339844 Z M 22.941406 29.339844 " fill-opacity="1" fill-rule="nonzero"/></g></svg>