<svg xmlns="http://www.w3.org/2000/svg" xmlns:xlink="http://www.w3.org/1999/xlink" width="68" zoomAndPan="magnify" viewBox="0 0 50.879997 50.999998" height="68" preserveAspectRatio="xMidYMid meet" version="1.0"><defs><clipPath id="fe3600288b"><path d="M 1.609375 5.457031 L 49.496094 5.457031 L 49.496094 45.863281 L 1.609375 45.863281 Z M 1.609375 5.457031 " clip-rule="nonzero"/></clipPath></defs><g clip-path="url(#fe3600288b)"><path fill="#fdc886" d="M 25.425781 40.113281 C 28.171875 40.125 31.367188 40.351562 34.398438 40.960938 C 37.054688 41.585938 37.363281 42.304688 34.632812 42.949219 C 31.738281 43.539062 28.652344 43.785156 25.425781 43.878906 C 22.195312 43.78125 19.113281 43.539062 16.214844 42.949219 C 13.480469 42.304688 13.792969 41.585938 16.449219 40.960938 C 19.480469 40.351562 22.679688 40.125 25.425781 40.113281 Z M 6.554688 13.449219 C 5.722656 18.285156 6.769531 24.113281 11.019531 25.828125 C 8.695312 26.699219 8.503906 27.730469 7.929688 28.535156 C 2.925781 24.566406 3.90625 17.21875 6.554688 13.449219 Z M 18.660156 7.953125 C 16.375 10.226562 15.496094 9.765625 12.109375 9.765625 C 6.296875 9.765625 1.609375 14.46875 1.609375 20.289062 C 1.609375 24.234375 3.8125 28.960938 7.085938 30.785156 C 8.964844 31.828125 9.382812 31.300781 9.789062 29.902344 C 10.964844 25.898438 23.585938 25.960938 30.117188 26.992188 C 33.914062 27.640625 36.210938 28.363281 36.78125 30.496094 C 29.53125 27.230469 20.40625 27.503906 12.972656 29.921875 C 11.617188 30.371094 10.820312 31.136719 11.226562 32.488281 C 11.878906 34.652344 11.992188 36.375 11.496094 39.101562 C 11.132812 41.105469 11.121094 42.613281 13.15625 43.570312 C 14.054688 43.988281 15.074219 44.320312 16.160156 44.609375 C 19.027344 45.382812 22.382812 45.785156 25.425781 45.785156 C 28.46875 45.785156 31.824219 45.382812 34.695312 44.609375 C 35.921875 44.28125 37.03125 43.828125 38.035156 43.410156 C 39.679688 42.722656 39.828125 41.585938 39.484375 40.101562 C 39.113281 38.492188 39.078125 36.390625 39.617188 34.277344 C 40.003906 32.769531 40.429688 32.113281 42.429688 31.390625 C 46.46875 29.921875 49.238281 24.742188 49.242188 20.285156 C 49.246094 13.84375 42.691406 8.199219 35.984375 10.222656 C 36.402344 12.113281 37.015625 14.792969 34.753906 17.050781 C 35.316406 14.730469 34.980469 12.402344 33.777344 10.164062 C 32.570312 7.925781 30.621094 6.296875 26.296875 5.933594 C 21.972656 5.570312 20.101562 6.515625 18.660156 7.953125 Z M 18.660156 7.953125 " fill-opacity="1" fill-rule="evenodd"/></g></svg>