<svg xmlns="http://www.w3.org/2000/svg" xmlns:xlink="http://www.w3.org/1999/xlink" width="68" zoomAndPan="magnify" viewBox="0 0 50.879997 50.999998" height="68" preserveAspectRatio="xMidYMid meet" version="1.0"><defs><clipPath id="7f9b27a0eb"><path d="M 1.980469 22 L 27 22 L 27 42 L 1.980469 42 Z M 1.980469 22 " clip-rule="nonzero"/></clipPath><clipPath id="6d338322c9"><path d="M 24 0.0585938 L 49 0.0585938 L 49 25 L 24 25 Z M 24 0.0585938 " clip-rule="nonzero"/></clipPath></defs><path fill="#fdc886" d="M 21.3125 15.265625 C 21.3125 11.480469 18.230469 8.398438 14.441406 8.398438 C 10.652344 8.398438 7.570312 11.480469 7.570312 15.265625 C 7.570312 19.054688 10.652344 22.230469 14.441406 22.230469 C 18.230469 22.230469 21.3125 19.054688 21.3125 15.265625 Z M 21.3125 15.265625 " fill-opacity="1" fill-rule="nonzero"/><path fill="#fdc886" d="M 26.808594 35.972656 L 25.433594 35.972656 C 24.675781 35.972656 24.0625 36.585938 24.0625 37.347656 L 24.0625 40.09375 C 24.0625 40.851562 24.675781 41.46875 25.433594 41.46875 L 26.808594 41.46875 C 28.328125 41.46875 29.558594 40.238281 29.558594 38.71875 C 29.558594 37.203125 28.328125 35.972656 26.808594 35.972656 Z M 26.808594 35.972656 " fill-opacity="1" fill-rule="nonzero"/><path fill="#fdc886" d="M 9.796875 46.964844 L 10.703125 44.214844 L 8.945312 44.214844 C 7.460938 44.214844 6.058594 43.886719 4.824219 43.253906 L 4.824219 45.589844 C 4.824219 46.359375 5.425781 46.964844 6.195312 46.964844 Z M 9.796875 46.964844 " fill-opacity="1" fill-rule="nonzero"/><g clip-path="url(#7f9b27a0eb)"><path fill="#fdc886" d="M 8.945312 41.46875 L 11.636719 41.46875 C 11.527344 41.808594 13.355469 36.261719 13.453125 35.972656 L 8.945312 35.972656 C 8.175781 35.972656 7.570312 35.367188 7.570312 34.597656 L 7.570312 29.101562 C 7.570312 28.332031 8.175781 27.726562 8.945312 27.726562 C 9.714844 27.726562 10.320312 28.332031 10.320312 29.101562 L 10.320312 33.222656 L 14.359375 33.222656 C 14.261719 33.511719 15.800781 28.949219 15.898438 28.660156 C 16.0625 28.109375 16.585938 27.726562 17.191406 27.726562 L 26.671875 27.726562 C 26.039062 24.59375 23.265625 22.230469 19.9375 22.230469 L 8.945312 22.230469 C 5.140625 22.230469 1.980469 25.3125 1.980469 29.101562 L 1.980469 34.597656 C 1.980469 38.527344 5.355469 41.46875 8.945312 41.46875 Z M 8.945312 41.46875 " fill-opacity="1" fill-rule="nonzero"/></g><path fill="#fdc886" d="M 27.265625 30.476562 L 18.179688 30.476562 L 12.683594 46.964844 L 22.6875 46.964844 C 23.277344 46.964844 23.800781 46.585938 23.988281 46.027344 L 24.621094 44.132812 C 22.734375 43.753906 21.3125 42.089844 21.3125 40.09375 L 21.3125 37.347656 C 21.3125 35.074219 23.160156 33.222656 25.433594 33.222656 L 26.808594 33.222656 C 27.289062 33.222656 27.746094 33.304688 28.191406 33.421875 L 28.570312 32.285156 C 28.867188 31.394531 28.203125 30.476562 27.265625 30.476562 Z M 27.265625 30.476562 " fill-opacity="1" fill-rule="nonzero"/><g clip-path="url(#6d338322c9)"><path fill="#fdc886" d="M 44.765625 0.0585938 L 28.183594 0.0585938 C 25.910156 0.0585938 24.0625 1.910156 24.0625 4.183594 L 24.0625 15.265625 C 24.0625 17.539062 25.910156 19.480469 28.183594 19.480469 L 29.558594 19.480469 L 29.558594 23.605469 C 29.558594 24.160156 29.890625 24.660156 30.40625 24.875 C 30.914062 25.085938 31.507812 24.972656 31.902344 24.574219 L 36.996094 19.480469 L 44.765625 19.480469 C 47.039062 19.480469 48.886719 17.539062 48.886719 15.265625 L 48.886719 4.183594 C 48.886719 1.910156 47.039062 0.0585938 44.765625 0.0585938 Z M 40.148438 9.367188 L 36.027344 13.492188 C 35.757812 13.757812 35.40625 13.894531 35.054688 13.894531 C 34.703125 13.894531 34.351562 13.757812 34.082031 13.492188 L 32.019531 11.429688 C 31.484375 10.890625 31.484375 10.023438 32.019531 9.488281 C 32.558594 8.949219 33.425781 8.949219 33.964844 9.488281 L 35.054688 10.574219 L 38.207031 7.425781 C 38.742188 6.886719 39.609375 6.886719 40.148438 7.425781 C 40.683594 7.960938 40.683594 8.832031 40.148438 9.367188 Z M 40.148438 9.367188 " fill-opacity="1" fill-rule="nonzero"/></g></svg>